<svg xmlns="http://www.w3.org/2000/svg" viewBox="0 0 35 30"><defs><style>.cls-1{fill:#fff;}</style></defs><title>basket</title><g id="Layer_2" data-name="Layer 2"><g id="Layer_1-2" data-name="Layer 1"><path class="cls-1" d="M32.88,7.22l-.79,2.24-.62,1.65L29.56,17H12.47L7.1.69a1.16,1.16,0,0,0-1-.69H0V1.92H5.35L10.7,18.37a1,1,0,0,0,1,.72H30.23a1,1,0,0,0,1-.71L33,12.91l2-5.69Z"/><path class="cls-1" d="M15.59,22.35a3.83,3.83,0,1,0,3.75,3.82A3.79,3.79,0,0,0,15.59,22.35Zm.06,6a2.06,2.06,0,0,1-2.11-2,2.11,2.11,0,0,1,.55-1.49,2,2,0,0,1,1.43-.66h.06a2.09,2.09,0,0,1,.07,4.17Z"/><path class="cls-1" d="M26.59,22.35h0a3.83,3.83,0,1,0,3.76,3.82A3.79,3.79,0,0,0,26.59,22.35Zm.06,6a2,2,0,0,1-1.48-.56,2.11,2.11,0,0,1-.66-1.46,2.09,2.09,0,0,1,2-2.18h.1a2.07,2.07,0,0,1,2.05,2A2.09,2.09,0,0,1,26.65,28.36Z"/></g></g></svg>