<svg xmlns="http://www.w3.org/2000/svg" xmlns:xlink="http://www.w3.org/1999/xlink" width="35" height="35" viewBox="0 0 35 35">
  <defs>
    <filter id="Ellipse_72" x="-36" y="-33" width="108" height="108" filterUnits="userSpaceOnUse">
      <feOffset dy="3" input="SourceAlpha"/>
      <feGaussianBlur stdDeviation="13" result="blur"/>
      <feFlood flood-opacity="0.161"/>
      <feComposite operator="in" in2="blur"/>
      <feComposite in="SourceGraphic"/>
    </filter>
    <clipPath id="clip-Artboard_3">
      <rect width="35" height="35"/>
    </clipPath>
  </defs>
  <g id="Artboard_3" data-name="Artboard – 3" clip-path="url(#clip-Artboard_3)">
    <g id="Group_2929" data-name="Group 2929" transform="translate(-521 -930)">
      <g transform="matrix(1, 0, 0, 1, 521, 930)" filter="url(#Ellipse_72)">
        <circle id="Ellipse_72-2" data-name="Ellipse 72" cx="15" cy="15" r="15" transform="translate(3 3)" fill="#68a419" opacity="0.8"/>
      </g>
      <g id="icon_badge" transform="translate(532.661 941.17)">
        <g id="Group_2709" data-name="Group 2709">
          <path id="Path_2151" data-name="Path 2151" d="M20.342,24.029h-.089C20.187,24.007,14,22.538,14,16.373V11.255a.42.42,0,0,1,.245-.4.443.443,0,0,1,.467.045,3.437,3.437,0,0,0,2.047.69,3.5,3.5,0,0,0,2.248-.823,3.833,3.833,0,0,0,.912-1.224c.022-.067.045-.111.067-.178a.394.394,0,0,1,.378-.178.453.453,0,0,1,.356.2l.067.134a3.277,3.277,0,0,0,.912,1.224,3.433,3.433,0,0,0,4.3.134.443.443,0,0,1,.467-.045.42.42,0,0,1,.245.4v5.118c-.022,6.187-6.209,7.655-6.253,7.655A.2.2,0,0,1,20.342,24.029ZM14.89,12.034v4.34c0,5.052,4.718,6.543,5.452,6.743.779-.2,5.452-1.647,5.452-6.743v-4.34a4.18,4.18,0,0,1-1.869.423A4.436,4.436,0,0,1,21.1,11.411a3.542,3.542,0,0,1-.757-.868,5.568,5.568,0,0,1-.757.868,4.346,4.346,0,0,1-2.826,1.046A3.9,3.9,0,0,1,14.89,12.034Z" transform="translate(-14 -9.181)" fill="#fff"/>
          <path id="Path_2152" data-name="Path 2152" d="M29.763,38.063a1,1,0,0,1-.728-.326l-1.807-1.93a1.27,1.27,0,0,1,0-1.7,1.07,1.07,0,0,1,1.6,0l.939,1,2.652-2.833a1.085,1.085,0,0,1,1.572-.075,1.181,1.181,0,0,1,.376.852,1.3,1.3,0,0,1-.329.877l-3.544,3.835A1.054,1.054,0,0,1,29.763,38.063ZM28.027,34.4a.454.454,0,0,0-.376.175.587.587,0,0,0,0,.8l1.807,1.93a.419.419,0,0,0,.61,0l3.544-3.785a.626.626,0,0,0,.164-.426.536.536,0,0,0-.188-.4h0a.552.552,0,0,0-.774.05l-2.84,3.033a.34.34,0,0,1-.211.1h0a.278.278,0,0,1-.211-.1L28.4,34.554A.6.6,0,0,0,28.027,34.4Z" transform="translate(-24.226 -27.214)" fill="#fff"/>
        </g>
      </g>
    </g>
  </g>
</svg>
